<svg width="1584" height="396" viewBox="0 0 1584 396" fill="none" xmlns="http://www.w3.org/2000/svg">
<rect width="1584" height="396" fill="#F5F5F5"/>
<g id="Awesome banner" clip-path="url(#clip0_0_1)">
<rect width="1584" height="396" fill="url(#paint0_linear_0_1)"/>
<ellipse id="Ellipse 2" cx="323" cy="64" rx="285" ry="288" fill="url(#paint1_linear_0_1)" fill-opacity="0.1"/>
<g id="copyright">
<path d="M75.95 334.52L72.30 334.52L72.30 311.16L77.20 311.16L83.70 330.04Q83.60 329.02 83.50 327.62Q83.41 326.23 83.33 324.79Q83.25 323.35 83.25 322.23L83.25 311.16L86.90 311.16L86.90 334.52L82 334.52L75.57 315.64Q75.63 316.57 75.73 317.88Q75.82 319.19 75.89 320.57Q75.95 321.94 75.95 323.10L75.95 334.52M98.80 334.84Q96.46 334.84 94.67 333.96Q92.88 333.08 91.89 331.53Q90.90 329.98 90.90 327.93Q90.90 325.78 92.13 324.18Q93.36 322.58 95.34 322.17L95.34 322.10Q93.65 321.75 92.61 320.38Q91.57 319 91.57 317.11Q91.57 315.26 92.48 313.85Q93.39 312.44 95.02 311.64Q96.66 310.84 98.80 310.84Q100.94 310.84 102.59 311.64Q104.24 312.44 105.15 313.85Q106.06 315.26 106.06 317.11Q106.06 319 105.01 320.38Q103.95 321.75 102.26 322.10L102.26 322.17Q104.24 322.58 105.47 324.18Q106.70 325.78 106.70 327.93Q106.70 329.98 105.71 331.53Q104.72 333.08 102.93 333.96Q101.14 334.84 98.80 334.84M98.80 320.73Q100.30 320.73 101.23 319.82Q102.16 318.90 102.16 317.46Q102.16 315.99 101.23 315.08Q100.30 314.17 98.80 314.17Q97.30 314.17 96.37 315.08Q95.44 315.99 95.44 317.46Q95.44 318.90 96.37 319.82Q97.30 320.73 98.80 320.73M98.80 331.45Q100.56 331.45 101.68 330.42Q102.80 329.40 102.80 327.74Q102.80 326.04 101.68 325Q100.56 323.96 98.80 323.96Q97.04 323.96 95.92 325Q94.80 326.04 94.80 327.74Q94.80 329.40 95.92 330.42Q97.04 331.45 98.80 331.45M114.35 334.52L110.70 334.52L110.70 311.16L115.60 311.16L122.10 330.04Q122 329.02 121.90 327.62Q121.81 326.23 121.73 324.79Q121.65 323.35 121.65 322.23L121.65 311.16L125.30 311.16L125.30 334.52L120.40 334.52L113.97 315.64Q114.03 316.57 114.13 317.88Q114.22 319.19 114.29 320.57Q114.35 321.94 114.35 323.10" fill="white" fill-opacity="0.9"/>
<path d="M161.48 325.24L151.24 325.24L151.24 322.68L161.48 322.68" fill="white" fill-opacity="0.9"/>
<path d="M195.02 334.84Q191.82 334.84 189.96 333.05Q188.11 331.26 188.11 328.12L188.11 317.56Q188.11 314.42 189.96 312.63Q191.82 310.84 195.02 310.84Q198.15 310.84 200.01 312.65Q201.87 314.46 201.87 317.56L198.99 317.56Q198.99 315.58 197.95 314.50Q196.91 313.43 195.02 313.43Q193.13 313.43 192.06 314.50Q190.99 315.58 190.99 317.56L190.99 328.12Q190.99 330.10 192.06 331.18Q193.13 332.25 195.02 332.25Q196.91 332.25 197.95 331.18Q198.99 330.10 198.99 328.12L201.87 328.12Q201.87 331.22 200.01 333.03Q198.15 334.84 195.02 334.84" fill="white" fill-opacity="0.9"/>
<path d="M213.96 334.84Q210.83 334.84 209 333.02Q207.18 331.19 207.18 327.80L207.18 317.88Q207.18 314.49 209 312.66Q210.83 310.84 213.96 310.84Q217.10 310.84 218.92 312.66Q220.75 314.49 220.75 317.85L220.75 327.80Q220.75 331.19 218.92 333.02Q217.10 334.84 213.96 334.84M213.96 332.25Q215.85 332.25 216.86 331.18Q217.87 330.10 217.87 328.12L217.87 317.56Q217.87 315.58 216.86 314.50Q215.85 313.43 213.96 313.43Q212.11 313.43 211.08 314.50Q210.06 315.58 210.06 317.56L210.06 328.12Q210.06 330.10 211.08 331.18Q212.11 332.25 213.96 332.25" fill="white" fill-opacity="0.9"/>
<path d="M228.65 334.52L225.87 334.52L225.87 311.16L230.12 311.16L233.10 321.27L236.20 311.16L240.46 311.16L240.46 334.52L237.67 334.52L237.67 323.48Q237.67 321.91 237.72 319.88Q237.77 317.85 237.87 315.77Q237.96 313.69 238.09 312.02L234.31 324.09L231.82 324.09L228.20 312.31Q228.46 314.68 228.55 317.50Q228.65 320.31 228.65 323.48" fill="white" fill-opacity="0.9"/>
<path d="M247.85 334.52L245.07 334.52L245.07 311.16L249.32 311.16L252.30 321.27L255.40 311.16L259.66 311.16L259.66 334.52L256.87 334.52L256.87 323.48Q256.87 321.91 256.92 319.88Q256.97 317.85 257.07 315.77Q257.16 313.69 257.29 312.02L253.51 324.09L251.02 324.09L247.40 312.31Q247.66 314.68 247.75 317.50Q247.85 320.31 247.85 323.48" fill="white" fill-opacity="0.9"/>
<path d="M271.56 334.84Q268.30 334.84 266.57 333.03Q264.84 331.22 264.84 328.12L264.84 311.16L267.72 311.16L267.72 328.12Q267.72 330.04 268.67 331.16Q269.61 332.28 271.56 332.28Q273.48 332.28 274.44 331.16Q275.40 330.04 275.40 328.12L275.40 311.16L278.28 311.16L278.28 328.12Q278.28 331.26 276.57 333.05Q274.86 334.84 271.56 334.84" fill="white" fill-opacity="0.9"/>
<path d="M286.83 334.52L284.04 334.52L284.04 311.16L287.88 311.16L295.02 331.16Q294.95 330.36 294.87 329.19Q294.79 328.02 294.75 326.73Q294.70 325.43 294.70 324.28L294.70 311.16L297.48 311.16L297.48 334.52L293.64 334.52L286.54 314.52Q286.60 315.29 286.67 316.46Q286.73 317.62 286.78 318.92Q286.83 320.22 286.83 321.40" fill="white" fill-opacity="0.9"/>
<path d="M316.20 334.52L303.72 334.52L303.72 331.90L308.49 331.90L308.49 313.78L303.72 313.78L303.72 311.16L316.20 311.16L316.20 313.78L311.43 313.78L311.43 331.90L316.20 331.90" fill="white" fill-opacity="0.9"/>
<path d="M330.60 334.52L327.72 334.52L327.72 313.78L321.32 313.78L321.32 311.16L337 311.16L337 313.78L330.60 313.78" fill="white" fill-opacity="0.9"/>
<path d="M349.80 334.52L346.92 334.52L346.92 325.78L339.88 311.16L342.95 311.16L347.50 320.76Q347.88 321.56 348.11 322.12Q348.33 322.68 348.39 322.94Q348.46 322.68 348.70 322.12Q348.94 321.56 349.32 320.76L353.87 311.16L356.84 311.16L349.80 325.78" fill="white" fill-opacity="0.9"/>
<path d="M382.83 334.52L380.04 334.52L380.04 311.16L383.88 311.16L391.02 331.16Q390.95 330.36 390.87 329.19Q390.79 328.02 390.75 326.73Q390.70 325.43 390.70 324.28L390.70 311.16L393.48 311.16L393.48 334.52L389.64 334.52L382.54 314.52Q382.60 315.29 382.67 316.46Q382.73 317.62 382.78 318.92Q382.83 320.22 382.83 321.40" fill="white" fill-opacity="0.9"/>
<path d="M405.96 334.84Q402.83 334.84 401 333.02Q399.18 331.19 399.18 327.80L399.18 317.88Q399.18 314.49 401 312.66Q402.83 310.84 405.96 310.84Q409.10 310.84 410.92 312.66Q412.75 314.49 412.75 317.85L412.75 327.80Q412.75 331.19 410.92 333.02Q409.10 334.84 405.96 334.84M405.96 332.25Q407.85 332.25 408.86 331.18Q409.87 330.10 409.87 328.12L409.87 317.56Q409.87 315.58 408.86 314.50Q407.85 313.43 405.96 313.43Q404.11 313.43 403.08 314.50Q402.06 315.58 402.06 317.56L402.06 328.12Q402.06 330.10 403.08 331.18Q404.11 332.25 405.96 332.25" fill="white" fill-opacity="0.9"/>
<path d="M424.55 334.52L418.51 334.52L418.51 311.16L424.55 311.16Q426.83 311.16 428.47 312.02Q430.12 312.89 431.03 314.46Q431.95 316.02 431.95 318.17L431.95 327.48Q431.95 329.62 431.03 331.21Q430.12 332.79 428.47 333.66Q426.83 334.52 424.55 334.52M421.39 313.72L421.39 331.96L424.55 331.96Q426.67 331.96 427.87 330.78Q429.07 329.59 429.07 327.48L429.07 318.17Q429.07 316.09 427.87 314.90Q426.67 313.72 424.55 313.72" fill="white" fill-opacity="0.9"/>
<path d="M451.40 334.52L437.96 334.52L437.96 311.16L451.40 311.16L451.40 313.78L440.81 313.78L440.81 321.02L450.28 321.02L450.28 323.58L440.81 323.58L440.81 331.90L451.40 331.90" fill="white" fill-opacity="0.9"/>
<path d="M463.69 334.84Q460.30 334.84 458.28 333.05Q456.27 331.26 456.27 328.12L459.15 328.12Q459.15 330.07 460.39 331.18Q461.64 332.28 463.69 332.28Q465.67 332.28 466.86 331.13Q468.04 329.98 468.04 328.12Q468.04 326.71 467.29 325.67Q466.54 324.63 465.13 324.25L461.58 323.26Q459.37 322.62 458.11 320.97Q456.84 319.32 456.84 317.08Q456.84 315.22 457.67 313.82Q458.51 312.41 460.01 311.62Q461.51 310.84 463.47 310.84Q465.45 310.84 466.97 311.62Q468.49 312.41 469.35 313.80Q470.22 315.19 470.22 317.02L467.34 317.02Q467.34 315.42 466.25 314.41Q465.16 313.40 463.47 313.40Q461.77 313.40 460.71 314.41Q459.66 315.42 459.66 317.02Q459.66 318.30 460.35 319.21Q461.03 320.12 462.28 320.47L465.93 321.50Q468.27 322.14 469.56 323.91Q470.86 325.69 470.86 328.12Q470.86 331.19 468.91 333.02Q466.95 334.84 463.69 334.84" fill="white" fill-opacity="0.9"/>
</g>
<path d="M73.41 197.64L71.20 197.64L75.76 180.12L78.66 180.12L83.20 197.64L81.02 197.64L79.86 192.98L74.56 192.98L73.41 197.64M76.34 185.74L74.99 191.16L79.41 191.16L78.06 185.76Q77.68 184.22 77.46 183.19Q77.25 182.16 77.20 181.85Q77.15 182.16 76.94 183.19Q76.72 184.22 76.34 185.74" fill="white" fill-opacity="0.7"/>
<path d="M88.77 197.64L86.61 197.64L86.61 180.12L92.25 180.12Q94.70 180.12 96.15 181.52Q97.60 182.93 97.60 185.28Q97.60 187.63 96.15 189.04Q94.70 190.44 92.25 190.44L88.77 190.44L88.77 197.64M88.77 182.06L88.77 188.50L92.25 188.50Q93.66 188.50 94.52 187.62Q95.37 186.74 95.37 185.28Q95.37 183.79 94.52 182.93Q93.66 182.06 92.25 182.06" fill="white" fill-opacity="0.7"/>
<path d="M110.68 197.64L101.32 197.64L101.32 195.67L104.90 195.67L104.90 182.09L101.32 182.09L101.32 180.12L110.68 180.12L110.68 182.09L107.10 182.09L107.10 195.67L110.68 195.67" fill="white" fill-opacity="0.7"/>
<path d="M139.96 197.64L136.12 197.64Q134.49 197.64 133.50 196.69Q132.52 195.74 132.52 194.16L132.52 186.41L128.73 186.41L128.73 184.44L132.52 184.44L132.52 180.72L134.68 180.72L134.68 184.44L140.08 184.44L140.08 186.41L134.68 186.41L134.68 194.16Q134.68 194.83 135.08 195.25Q135.47 195.67 136.12 195.67L139.96 195.67" fill="white" fill-opacity="0.7"/>
<path d="M146.37 197.64L144.21 197.64L144.21 180.12L146.37 180.12L146.37 186.96L146.39 186.96Q146.56 185.64 147.47 184.92Q148.38 184.20 149.90 184.20Q151.89 184.20 153.06 185.42Q154.24 186.65 154.24 188.76L154.24 197.64L152.08 197.64L152.08 189.12Q152.08 187.63 151.32 186.83Q150.57 186.02 149.27 186.02Q147.93 186.02 147.15 186.86Q146.37 187.70 146.37 189.24" fill="white" fill-opacity="0.7"/>
<path d="M162.45 197.88Q160.41 197.88 159.21 196.74Q158.01 195.60 158.01 193.75Q158.01 192.53 158.56 191.62Q159.11 190.70 160.10 190.19Q161.08 189.67 162.35 189.67L166.43 189.67L166.43 188.64Q166.43 186.07 163.62 186.07Q162.38 186.07 161.61 186.53Q160.84 186.98 160.79 187.80L158.63 187.80Q158.75 186.24 160.08 185.22Q161.42 184.20 163.62 184.20Q166.02 184.20 167.31 185.35Q168.59 186.50 168.59 188.57L168.59 197.64L166.46 197.64L166.46 195.24L166.41 195.24Q166.22 196.46 165.18 197.17Q164.15 197.88 162.45 197.88M162.98 196.06Q164.56 196.06 165.50 195.29Q166.43 194.52 166.43 193.20L166.43 191.35L162.59 191.35Q161.54 191.35 160.88 191.99Q160.22 192.62 160.22 193.68Q160.22 194.78 160.95 195.42Q161.68 196.06 162.98 196.06" fill="white" fill-opacity="0.7"/>
<path d="M183.16 197.64L179.32 197.64Q177.69 197.64 176.70 196.69Q175.72 195.74 175.72 194.16L175.72 186.41L171.93 186.41L171.93 184.44L175.72 184.44L175.72 180.72L177.88 180.72L177.88 184.44L183.28 184.44L183.28 186.41L177.88 186.41L177.88 194.16Q177.88 194.83 178.28 195.25Q178.67 195.67 179.32 195.67L183.16 195.67" fill="white" fill-opacity="0.7"/>
<path d="M205.65 197.88Q203.61 197.88 202.41 196.74Q201.21 195.60 201.21 193.75Q201.21 192.53 201.76 191.62Q202.31 190.70 203.30 190.19Q204.28 189.67 205.55 189.67L209.63 189.67L209.63 188.64Q209.63 186.07 206.82 186.07Q205.58 186.07 204.81 186.53Q204.04 186.98 203.99 187.80L201.83 187.80Q201.95 186.24 203.28 185.22Q204.62 184.20 206.82 184.20Q209.22 184.20 210.51 185.35Q211.79 186.50 211.79 188.57L211.79 197.64L209.66 197.64L209.66 195.24L209.61 195.24Q209.42 196.46 208.38 197.17Q207.35 197.88 205.65 197.88M206.18 196.06Q207.76 196.06 208.70 195.29Q209.63 194.52 209.63 193.20L209.63 191.35L205.79 191.35Q204.74 191.35 204.08 191.99Q203.42 192.62 203.42 193.68Q203.42 194.78 204.15 195.42Q204.88 196.06 206.18 196.06" fill="white" fill-opacity="0.7"/>
<path d="M227.20 197.64L223.12 197.64Q221.37 197.64 220.32 196.62Q219.28 195.60 219.28 193.92L219.28 182.09L214.72 182.09L214.72 180.12L221.44 180.12L221.44 193.92Q221.44 194.74 221.90 195.20Q222.35 195.67 223.12 195.67L227.20 195.67" fill="white" fill-opacity="0.7"/>
<path d="M241.60 197.64L237.52 197.64Q235.77 197.64 234.72 196.62Q233.68 195.60 233.68 193.92L233.68 182.09L229.12 182.09L229.12 180.12L235.84 180.12L235.84 193.92Q235.84 194.74 236.30 195.20Q236.75 195.67 237.52 195.67L241.60 195.67" fill="white" fill-opacity="0.7"/>
<path d="MNaN 197.83Q247.62 197.83 246.22 196.44Q244.82 195.05 244.82 192.55L244.82 189.53Q244.82 187.01 246.21 185.63Q247.60 184.25 NaN 184.25Q252.40 184.25 253.79 185.63Q255.18 187.01 255.18 189.53L255.18 192.55Q255.18 195.05 253.78 196.44Q252.38 197.83 NaN 197.83MNaN 195.91Q251.42 195.91 252.22 195.12Q253.02 194.33 253.02 192.79L253.02 189.29Q253.02 187.75 252.22 186.96Q251.42 186.17 NaN 186.17Q248.61 186.17 247.79 186.96Q246.98 187.75 246.98 189.29L246.98 192.79Q246.98 194.33 247.79 195.12Q248.61 195.91 NaN 195.91" fill="white" fill-opacity="0.7"/>
<path d="M262.48 197.64L260.10 197.64L257.94 184.44L259.82 184.44L261.16 193.75Q261.23 194.28 261.30 194.92Q261.38 195.55 261.40 195.96Q261.45 195.55 261.51 194.92Q261.57 194.28 261.66 193.75L263.32 184.44L265.48 184.44L267.14 193.75Q267.23 194.28 267.32 194.92Q267.40 195.55 267.42 195.96Q267.47 195.55 267.54 194.92Q267.62 194.28 267.69 193.75L269.08 184.44L270.86 184.44L268.60 197.64L266.22 197.64L264.71 188.52Q264.62 187.85 264.53 187.09Q264.45 186.34 264.40 185.93Q264.38 186.34 264.28 187.09Q264.18 187.85 264.06 188.52" fill="white" fill-opacity="0.7"/>
<path d="M279.33 197.83L278.27 197.83Q276.06 197.83 274.85 196.84Q273.64 195.84 273.64 194.02L275.80 194.02Q275.80 194.93 276.45 195.44Q277.10 195.96 278.27 195.96L279.33 195.96Q280.53 195.96 281.19 195.43Q281.85 194.90 281.85 193.94Q281.85 192.24 280.29 192.02L276.64 191.50Q275.30 191.30 274.55 190.38Q273.81 189.46 273.81 187.94Q273.81 186.22 275 185.23Q276.18 184.25 278.27 184.25L279.33 184.25Q281.25 184.25 282.46 185.20Q283.67 186.14 283.77 187.68L281.58 187.68Q281.54 186.98 280.92 186.53Q280.31 186.07 279.33 186.07L278.27 186.07Q277.17 186.07 276.54 186.58Q275.92 187.08 275.92 187.94Q275.92 189.34 277.19 189.53L280.60 190.01Q283.96 190.49 283.96 193.94Q283.96 195.79 282.75 196.81Q281.54 197.83 279.33 197.83" fill="white" fill-opacity="0.7"/>
<path d="M312.59 201.96L310.43 201.96L310.43 198.12L310.48 195.12L310.41 195.12Q310.24 196.39 309.28 197.14Q308.32 197.88 306.83 197.88Q304.84 197.88 303.66 196.56Q302.49 195.24 302.49 192.96L302.49 189.10Q302.49 186.82 303.68 185.51Q304.86 184.20 306.83 184.20Q308.32 184.20 309.28 184.93Q310.24 185.66 310.41 186.96L310.43 186.96L310.43 184.44L312.59 184.44L312.59 201.96M307.55 196.01Q308.90 196.01 309.66 195.17Q310.43 194.33 310.43 192.84L310.43 189.24Q310.43 187.75 309.66 186.91Q308.90 186.07 307.55 186.07Q306.18 186.07 305.42 186.77Q304.65 187.46 304.65 189L304.65 193.08Q304.65 194.62 305.42 195.31Q306.18 196.01 307.55 196.01" fill="white" fill-opacity="0.7"/>
<path d="M321.98 197.88Q319.70 197.88 318.33 196.52Q316.96 195.17 316.96 192.84L316.96 184.44L319.12 184.44L319.12 192.84Q319.12 194.28 319.89 195.13Q320.66 195.98 321.98 195.98Q323.32 195.98 324.10 195.13Q324.88 194.28 324.88 192.84L324.88 184.44L327.04 184.44L327.04 192.84Q327.04 195.17 325.65 196.52Q324.26 197.88 321.98 197.88" fill="white" fill-opacity="0.7"/>
<path d="M336.40 197.88Q334.07 197.88 332.64 196.48Q331.22 195.07 331.22 192.60L331.22 189.48Q331.22 187.01 332.64 185.60Q334.07 184.20 336.40 184.20Q337.96 184.20 339.12 184.82Q340.29 185.45 340.94 186.58Q341.58 187.70 341.58 189.24L341.58 191.59L333.33 191.59L333.33 192.84Q333.33 194.30 334.17 195.16Q335.01 196.01 336.40 196.01Q337.60 196.01 338.38 195.54Q339.16 195.07 339.33 194.28L341.49 194.28Q341.27 195.94 339.88 196.91Q338.49 197.88 336.40 197.88M333.33 189.24L333.33 189.91L339.47 189.91L339.47 189.24Q339.47 187.68 338.67 186.83Q337.86 185.98 336.40 185.98Q334.94 185.98 334.13 186.83Q333.33 187.68 333.33 189.24" fill="white" fill-opacity="0.7"/>
<path d="M348.45 197.64L346.29 197.64L346.29 184.44L348.45 184.44L348.45 186.96L348.50 186.96Q348.66 185.69 349.58 184.94Q350.49 184.20 352.02 184.20Q354.09 184.20 355.20 185.44Q356.32 186.67 356.32 188.95L356.32 190.08L354.16 190.08L354.16 188.95Q354.16 186.07 351.35 186.07Q349.94 186.07 349.19 186.89Q348.45 187.70 348.45 189.24" fill="white" fill-opacity="0.7"/>
<path d="M364.53 201.96L362.27 201.96L364.22 196.82L359.30 184.44L361.62 184.44L364.74 192.60Q364.94 193.08 365.10 193.61Q365.27 194.14 365.34 194.52Q365.42 194.14 365.58 193.61Q365.75 193.08 365.92 192.60L368.82 184.44L371.10 184.44" fill="white" fill-opacity="0.7"/>
<path d="M385.72 197.64L374.44 197.64L374.44 195.67L379.12 195.67L379.12 186.41L374.92 186.41L374.92 184.44L381.28 184.44L381.28 195.67L385.72 195.67L385.72 197.64M379.96 182.06Q379.17 182.06 378.71 181.66Q378.26 181.25 378.26 180.55Q378.26 179.83 378.71 179.41Q379.17 178.99 379.96 178.99Q380.75 178.99 381.21 179.41Q381.66 179.83 381.66 180.55Q381.66 181.25 381.21 181.66Q380.75 182.06 379.96 182.06" fill="white" fill-opacity="0.7"/>
<path d="M391.17 197.64L389.01 197.64L389.01 184.44L391.17 184.44L391.17 186.96L391.19 186.96Q391.36 185.64 392.27 184.92Q393.18 184.20 394.70 184.20Q396.69 184.20 397.86 185.42Q399.04 186.65 399.04 188.76L399.04 197.64L396.88 197.64L396.88 189.14Q396.88 187.63 396.12 186.83Q395.37 186.02 394.07 186.02Q392.73 186.02 391.95 186.86Q391.17 187.70 391.17 189.24" fill="white" fill-opacity="0.7"/>
<path d="M408.76 201.96L405.06 201.96L405.06 199.99L408.78 199.99Q409.91 199.99 410.56 199.36Q411.21 198.72 411.21 197.64L411.21 196.44L411.26 194.28L411.18 194.28Q410.99 195.46 410.06 196.09Q409.12 196.73 407.70 196.73Q405.66 196.73 404.49 195.43Q403.31 194.14 403.31 191.88L403.31 189.10Q403.31 186.84 404.49 185.52Q405.66 184.20 407.70 184.20Q409.12 184.20 410.06 184.87Q410.99 185.54 411.18 186.72L411.23 186.72L411.23 184.44L413.37 184.44L413.37 197.64Q413.37 199.63 412.13 200.80Q410.90 201.96 408.76 201.96M408.35 194.93Q409.70 194.93 410.46 194.09Q411.23 193.25 411.23 191.76L411.23 189.24Q411.23 187.75 410.46 186.91Q409.70 186.07 408.35 186.07Q406.98 186.07 406.23 186.86Q405.47 187.66 405.47 189L405.47 192Q405.47 193.34 406.23 194.14Q406.98 194.93 408.35 194.93" fill="white" fill-opacity="0.7"/>
<path d="M437.20 197.83Q434.82 197.83 433.42 196.44Q432.02 195.05 432.02 192.55L432.02 189.53Q432.02 187.01 433.41 185.63Q434.80 184.25 437.20 184.25Q439.60 184.25 440.99 185.63Q442.38 187.01 442.38 189.53L442.38 192.55Q442.38 195.05 440.98 196.44Q439.58 197.83 437.20 197.83M437.20 195.91Q438.62 195.91 439.42 195.12Q440.22 194.33 440.22 192.79L440.22 189.29Q440.22 187.75 439.42 186.96Q438.62 186.17 437.20 186.17Q435.81 186.17 434.99 186.96Q434.18 187.75 434.18 189.29L434.18 192.79Q434.18 194.33 434.99 195.12Q435.81 195.91 437.20 195.91" fill="white" fill-opacity="0.7"/>
<path d="M451.72 197.64L449.56 197.64L449.56 188.21L445.72 188.21L445.72 186.24L449.56 186.24L449.56 183.48Q449.56 181.92 450.54 181.02Q451.53 180.12 453.26 180.12L457.12 180.12L457.12 182.09L453.26 182.09Q451.72 182.09 451.72 183.48L451.72 186.24L457.12 186.24L457.12 188.21L451.72 188.21" fill="white" fill-opacity="0.7"/>
<path d="M486.40 197.64L476.32 197.64L476.32 180.12L478.48 180.12L478.48 195.67L486.40 195.67" fill="white" fill-opacity="0.7"/>
<path d="M494.80 197.83Q492.42 197.83 491.02 196.44Q489.62 195.05 489.62 192.55L489.62 189.53Q489.62 187.01 491.01 185.63Q492.40 184.25 494.80 184.25Q497.20 184.25 498.59 185.63Q499.98 187.01 499.98 189.53L499.98 192.55Q499.98 195.05 498.58 196.44Q497.18 197.83 494.80 197.83M494.80 195.91Q496.22 195.91 497.02 195.12Q497.82 194.33 497.82 192.79L497.82 189.29Q497.82 187.75 497.02 186.96Q496.22 186.17 494.80 186.17Q493.41 186.17 492.59 186.96Q491.78 187.75 491.78 189.29L491.78 192.79Q491.78 194.33 492.59 195.12Q493.41 195.91 494.80 195.91" fill="white" fill-opacity="0.7"/>
<path d="M506.85 197.64L504.69 197.64L504.69 184.44L506.85 184.44L506.85 186.96L506.90 186.96Q507.06 185.69 507.98 184.94Q508.89 184.20 510.42 184.20Q512.49 184.20 513.60 185.44Q514.72 186.67 514.72 188.95L514.72 190.08L512.56 190.08L512.56 188.95Q512.56 186.07 509.75 186.07Q508.34 186.07 507.59 186.89Q506.85 187.70 506.85 189.24" fill="white" fill-opacity="0.7"/>
<path d="M522.83 197.88Q520.86 197.88 519.68 196.56Q518.49 195.24 518.49 192.98L518.49 189.12Q518.49 186.84 519.66 185.52Q520.84 184.20 522.83 184.20Q524.32 184.20 525.29 184.94Q526.26 185.69 526.46 186.96L526.48 186.96L526.43 183.96L526.43 180.12L528.59 180.12L528.59 197.64L526.43 197.64L526.43 195.12L526.41 195.12Q526.24 196.42 525.28 197.15Q524.32 197.88 522.83 197.88M523.55 196.01Q524.90 196.01 525.66 195.17Q526.43 194.33 526.43 192.84L526.43 189.24Q526.43 187.75 525.66 186.91Q524.90 186.07 523.55 186.07Q522.18 186.07 521.42 186.78Q520.65 187.49 520.65 189.12L520.65 192.96Q520.65 194.57 521.42 195.29Q522.18 196.01 523.55 196.01" fill="white" fill-opacity="0.7"/>
<path d="M538.53 197.83L537.47 197.83Q535.26 197.83 534.05 196.84Q532.84 195.84 532.84 194.02L535 194.02Q535 194.93 535.65 195.44Q536.30 195.96 537.47 195.96L538.53 195.96Q539.73 195.96 540.39 195.43Q541.05 194.90 541.05 193.94Q541.05 192.24 539.49 192.02L535.84 191.50Q534.50 191.30 533.75 190.38Q533.01 189.46 533.01 187.94Q533.01 186.22 534.20 185.23Q535.38 184.25 537.47 184.25L538.53 184.25Q540.45 184.25 541.66 185.20Q542.87 186.14 542.97 187.68L540.78 187.68Q540.74 186.98 540.12 186.53Q539.51 186.07 538.53 186.07L537.47 186.07Q536.37 186.07 535.74 186.58Q535.12 187.08 535.12 187.94Q535.12 189.34 536.39 189.53L539.80 190.01Q543.16 190.49 543.16 193.94Q543.16 195.79 541.95 196.81Q540.74 197.83 538.53 197.83" fill="white" fill-opacity="0.7"/>
<path d="M568.26 197.64L565.31 197.64L560.80 180.12L563.01 180.12L566.01 192.05Q566.32 193.30 566.52 194.35Q566.73 195.41 566.82 195.96Q566.92 195.41 567.15 194.34Q567.38 193.27 567.69 192.02L570.57 180.12L572.80 180.12" fill="white" fill-opacity="0.7"/>
<path d="M581.20 197.83Q578.82 197.83 577.42 196.44Q576.02 195.05 576.02 192.55L576.02 189.53Q576.02 187.01 577.41 185.63Q578.80 184.25 581.20 184.25Q583.60 184.25 584.99 185.63Q586.38 187.01 586.38 189.53L586.38 192.55Q586.38 195.05 584.98 196.44Q583.58 197.83 581.20 197.83M581.20 195.91Q582.62 195.91 583.42 195.12Q584.22 194.33 584.22 192.79L584.22 189.29Q584.22 187.75 583.42 186.96Q582.62 186.17 581.20 186.17Q579.81 186.17 578.99 186.96Q578.18 187.75 578.18 189.29L578.18 192.79Q578.18 194.33 578.99 195.12Q579.81 195.91 581.20 195.91" fill="white" fill-opacity="0.7"/>
<path d="M600.76 197.64L596.92 197.64Q595.29 197.64 594.30 196.69Q593.32 195.74 593.32 194.16L593.32 186.41L589.53 186.41L589.53 184.44L593.32 184.44L593.32 180.72L595.48 180.72L595.48 184.44L600.88 184.44L600.88 186.41L595.48 186.41L595.48 194.16Q595.48 194.83 595.88 195.25Q596.27 195.67 596.92 195.67L600.76 195.67" fill="white" fill-opacity="0.7"/>
<path d="M610 197.88Q607.67 197.88 606.24 196.48Q604.82 195.07 604.82 192.60L604.82 189.48Q604.82 187.01 606.24 185.60Q607.67 184.20 610 184.20Q611.56 184.20 612.72 184.82Q613.89 185.45 614.54 186.58Q615.18 187.70 615.18 189.24L615.18 191.59L606.93 191.59L606.93 192.84Q606.93 194.30 607.77 195.16Q608.61 196.01 610 196.01Q611.20 196.01 611.98 195.54Q612.76 195.07 612.93 194.28L615.09 194.28Q614.87 195.94 613.48 196.91Q612.09 197.88 610 197.88M606.93 189.24L606.93 189.91L613.07 189.91L613.07 189.24Q613.07 187.68 612.27 186.83Q611.46 185.98 610 185.98Q608.54 185.98 607.73 186.83Q606.93 187.68 606.93 189.24" fill="white" fill-opacity="0.7"/>
<path d="M624.93 197.83L623.87 197.83Q621.66 197.83 620.45 196.84Q619.24 195.84 619.24 194.02L621.40 194.02Q621.40 194.93 622.05 195.44Q622.70 195.96 623.87 195.96L624.93 195.96Q626.13 195.96 626.79 195.43Q627.45 194.90 627.45 193.94Q627.45 192.24 625.89 192.02L622.24 191.50Q620.90 191.30 620.15 190.38Q619.41 189.46 619.41 187.94Q619.41 186.22 620.60 185.23Q621.78 184.25 623.87 184.25L624.93 184.25Q626.85 184.25 628.06 185.20Q629.27 186.14 629.37 187.68L627.18 187.68Q627.14 186.98 626.52 186.53Q625.91 186.07 624.93 186.07L623.87 186.07Q622.77 186.07 622.14 186.58Q621.52 187.08 621.52 187.94Q621.52 189.34 622.79 189.53L626.20 190.01Q629.56 190.49 629.56 193.94Q629.56 195.79 628.35 196.81Q627.14 197.83 624.93 197.83" fill="white" fill-opacity="0.7"/>
<path d="M652.43 197.88Q650.46 197.88 649.28 196.56Q648.09 195.24 648.09 192.98L648.09 189.12Q648.09 186.84 649.26 185.52Q650.44 184.20 652.43 184.20Q653.92 184.20 654.89 184.94Q655.86 185.69 656.06 186.96L656.08 186.96L656.03 183.96L656.03 180.12L658.19 180.12L658.19 197.64L656.03 197.64L656.03 195.12L656.01 195.12Q655.84 196.42 654.88 197.15Q653.92 197.88 652.43 197.88M653.15 196.01Q654.50 196.01 655.26 195.17Q656.03 194.33 656.03 192.84L656.03 189.24Q656.03 187.75 655.26 186.91Q654.50 186.07 653.15 186.07Q651.78 186.07 651.02 186.78Q650.25 187.49 650.25 189.12L650.25 192.96Q650.25 194.57 651.02 195.29Q651.78 196.01 653.15 196.01" fill="white" fill-opacity="0.7"/>
<path d="M666.45 197.88Q664.41 197.88 663.21 196.74Q662.01 195.60 662.01 193.75Q662.01 192.53 662.56 191.62Q663.11 190.70 664.10 190.19Q665.08 189.67 666.35 189.67L670.43 189.67L670.43 188.64Q670.43 186.07 667.62 186.07Q666.38 186.07 665.61 186.53Q664.84 186.98 664.79 187.80L662.63 187.80Q662.75 186.24 664.08 185.22Q665.42 184.20 667.62 184.20Q670.02 184.20 671.31 185.35Q672.59 186.50 672.59 188.57L672.59 197.64L670.46 197.64L670.46 195.24L670.41 195.24Q670.22 196.46 669.18 197.17Q668.15 197.88 666.45 197.88M666.98 196.06Q668.56 196.06 669.50 195.29Q670.43 194.52 670.43 193.20L670.43 191.35L666.59 191.35Q665.54 191.35 664.88 191.99Q664.22 192.62 664.22 193.68Q664.22 194.78 664.95 195.42Q665.68 196.06 666.98 196.06" fill="white" fill-opacity="0.7"/>
<path d="M687.16 197.64L683.32 197.64Q681.69 197.64 680.70 196.69Q679.72 195.74 679.72 194.16L679.72 186.41L675.93 186.41L675.93 184.44L679.72 184.44L679.72 180.72L681.88 180.72L681.88 184.44L687.28 184.44L687.28 186.41L681.88 186.41L681.88 194.16Q681.88 194.83 682.28 195.25Q682.67 195.67 683.32 195.67L687.16 195.67" fill="white" fill-opacity="0.7"/>
<path d="M695.25 197.88Q693.21 197.88 692.01 196.74Q690.81 195.60 690.81 193.75Q690.81 192.53 691.36 191.62Q691.91 190.70 692.90 190.19Q693.88 189.67 695.15 189.67L699.23 189.67L699.23 188.64Q699.23 186.07 696.42 186.07Q695.18 186.07 694.41 186.53Q693.64 186.98 693.59 187.80L691.43 187.80Q691.55 186.24 692.88 185.22Q694.22 184.20 696.42 184.20Q698.82 184.20 700.11 185.35Q701.39 186.50 701.39 188.57L701.39 197.64L699.26 197.64L699.26 195.24L699.21 195.24Q699.02 196.46 697.98 197.17Q696.95 197.88 695.25 197.88M695.78 196.06Q697.36 196.06 698.30 195.29Q699.23 194.52 699.23 193.20L699.23 191.35L695.39 191.35Q694.34 191.35 693.68 191.99Q693.02 192.62 693.02 193.68Q693.02 194.78 693.75 195.42Q694.48 196.06 695.78 196.06" fill="white" fill-opacity="0.7"/>
<path d="M710.80 197.88Q709.91 197.88 709.37 197.35Q708.83 196.82 708.83 195.98Q708.83 195.10 709.37 194.54Q709.91 193.99 710.80 193.99Q711.69 193.99 712.23 194.54Q712.77 195.10 712.77 195.98Q712.77 196.82 712.23 197.35Q711.69 197.88 710.80 197.88" fill="white" fill-opacity="0.7"/>
<path d="M79.95 136.06L70.45 136.06L70.45 65.98L93.20 65.98Q99.92 65.98 104.82 68.57Q109.71 71.16 112.40 75.82Q115.09 80.48 115.09 86.91Q115.09 93.24 112.40 97.90Q109.71 102.56 104.77 105.15Q99.82 107.74 93.20 107.74L79.95 107.74L79.95 136.06M79.95 74.43L79.95 99.29L93.20 99.29Q98.77 99.29 102.03 95.88Q105.30 92.48 105.30 86.91Q105.30 81.24 102.03 77.84Q98.77 74.43 93.20 74.43L79.95 74.43M133.71 136.06L124.02 136.06L142.16 65.98L154.74 65.98L172.78 136.06L163.09 136.06L158.67 117.82L138.13 117.82L133.71 136.06M145.14 88.92L140.05 109.95L156.75 109.95L151.76 89.02Q150.32 83.26 149.46 79.23Q148.59 75.20 148.40 73.76Q148.21 75.20 147.34 79.23Q146.48 83.26 145.14 88.92M195.15 136.06L185.74 136.06L185.74 65.98L207.44 65.98Q213.87 65.98 218.67 68.52Q223.47 71.07 226.16 75.63Q228.85 80.19 228.85 86.33Q228.85 93.44 225.25 98.52Q221.65 103.61 215.70 105.72L229.81 136.06L219.34 136.06L206 106.78L195.15 106.78L195.15 136.06M195.15 74.43L195.15 98.33L207.44 98.33Q212.82 98.33 215.94 95.07Q219.06 91.80 219.06 86.43Q219.06 80.96 215.89 77.69Q212.72 74.43 207.44 74.43L195.15 74.43M287.79 136.06L247.09 136.06L247.09 65.98L256.59 65.98L256.59 127.42L287.79 127.42L287.79 136.06M340.30 136.06L302.10 136.06L302.10 127.42L316.40 127.42L316.40 74.62L302.10 74.62L302.10 65.98L340.30 65.98L340.30 74.62L326 74.62L326 127.42L340.30 127.42L340.30 136.06M364.11 136.06L354.42 136.06L372.56 65.98L385.14 65.98L403.18 136.06L393.49 136.06L389.07 117.82L368.53 117.82L364.11 136.06M375.54 88.92L370.45 109.95L387.15 109.95L382.16 89.02Q380.72 83.26 379.86 79.23Q378.99 75.20 378.80 73.76Q378.61 75.20 377.74 79.23Q376.88 83.26 375.54 88.92M423.15 136.06L414.13 136.06L414.13 65.98L427.57 65.98L436.21 96.22L445.23 65.98L458.77 65.98L458.77 136.06L449.65 136.06L449.65 103.90Q449.65 98.81 449.84 92.62Q450.03 86.43 450.37 80.24Q450.70 74.04 451.09 69.05L440.14 104.96L432.08 104.96L421.52 69.92Q422.38 76.92 422.77 85.52Q423.15 94.11 423.15 103.90L423.15 136.06M515.31 136.06L474.51 136.06L474.51 65.98L515.31 65.98L515.31 74.52L483.92 74.52L483.92 95.36L511.95 95.36L511.95 103.61L483.92 103.61L483.92 127.52L515.31 127.52L515.31 136.06M539.98 136.06L531.06 136.06L531.06 65.98L543.34 65.98L564.27 125.12Q563.98 122.62 563.74 118.92Q563.50 115.23 563.36 111.24Q563.22 107.26 563.22 103.71L563.22 65.98L572.24 65.98L572.24 136.06L559.86 136.06L539.12 76.92Q539.31 79.42 539.50 83.02Q539.70 86.62 539.84 90.56Q539.98 94.49 539.98 97.95L539.98 136.06MNaN 136.06L604.50 136.06L604.50 74.62L585.49 74.62L585.49 65.98L632.91 65.98L632.91 74.62LNaN 74.62LNaN 136.06M748.59 136.06L707.89 136.06L707.89 65.98L717.39 65.98L717.39 127.42L748.59 127.42L748.59 136.06MNaN 137.02Q772.40 137.02 766.83 131.45Q761.26 125.88 761.26 115.71L761.26 86.24Q761.26 76.16 766.83 70.59Q772.40 65.02 NaN 65.02Q791.60 65.02 797.17 70.54Q802.74 76.06 802.74 86.24L802.74 115.71Q802.74 125.88 797.17 131.45Q791.60 137.02 NaN 137.02MNaN 128.57Q787.38 128.57 790.30 125.50Q793.23 122.43 793.23 116.67L793.23 85.28Q793.23 79.61 790.35 76.54Q787.47 73.47 NaN 73.47Q776.53 73.47 773.65 76.54Q770.77 79.61 770.77 85.28L770.77 116.67Q770.77 122.43 773.70 125.50Q776.62 128.57 NaN 128.57M828.75 136.06L819.34 136.06L819.34 65.98L841.04 65.98Q847.47 65.98 852.27 68.52Q857.07 71.07 859.76 75.63Q862.45 80.19 862.45 86.33Q862.45 93.44 858.85 98.52Q855.25 103.61 849.30 105.72L863.41 136.06L852.94 136.06L839.60 106.78L828.75 106.78L828.75 136.06M828.75 74.43L828.75 98.33L841.04 98.33Q846.42 98.33 849.54 95.07Q852.66 91.80 852.66 86.43Q852.66 80.96 849.49 77.69Q846.32 74.43 841.04 74.43L828.75 74.43M895.66 136.06L876.85 136.06L876.85 65.98L895.66 65.98Q902.48 65.98 907.52 68.62Q912.56 71.26 915.34 76.01Q918.13 80.76 918.13 87.20L918.13 114.75Q918.13 121.18 915.34 125.98Q912.56 130.78 907.52 133.42Q902.48 136.06 895.66 136.06M886.35 74.43L886.35 127.61L895.66 127.61Q901.71 127.61 905.17 124.16Q908.62 120.70 908.62 114.75L908.62 87.20Q908.62 81.24 905.17 77.84Q901.71 74.43 895.66 74.43L886.35 74.43M955.18 137.02Q944.82 137.02 938.67 131.60Q932.53 126.17 932.53 116.67L942.03 116.67Q942.03 122.24 945.58 125.40Q949.14 128.57 955.18 128.57Q960.94 128.57 964.35 125.36Q967.76 122.14 967.76 116.76Q967.76 112.73 965.55 109.71Q963.34 106.68 959.31 105.63L948.94 102.84Q942.13 100.92 938.14 95.88Q934.16 90.84 934.16 83.93Q934.16 78.27 936.70 74Q939.25 69.72 943.86 67.37Q948.46 65.02 954.51 65.02Q960.66 65.02 965.31 67.37Q969.97 69.72 972.56 73.95Q975.15 78.17 975.15 83.74L965.74 83.74Q965.74 79.13 962.62 76.25Q959.50 73.37 954.51 73.37Q949.52 73.37 946.50 76.25Q943.47 79.13 943.47 83.74Q943.47 87.48 945.49 90.03Q947.50 92.57 951.15 93.63L961.81 96.51Q969.01 98.43 973.04 103.85Q977.07 109.28 977.07 116.76Q977.07 122.91 974.38 127.47Q971.70 132.03 966.75 134.52Q961.81 137.02 955.18 137.02M1018.74 136.06L1005.97 136.06L988.02 65.98L997.81 65.98L1009.42 113.21Q1010.58 117.72 1011.39 121.90Q1012.21 126.08 1012.59 128.28Q1012.88 126.08 1013.79 121.85Q1014.70 117.63 1015.76 113.12L1026.99 65.98L1036.78 65.98L1018.74 136.06MNaN 137.02Q1060.40 137.02 1054.83 131.45Q1049.26 125.88 1049.26 115.71L1049.26 86.24Q1049.26 76.16 1054.83 70.59Q1060.40 65.02 NaN 65.02Q1079.60 65.02 1085.17 70.54Q1090.74 76.06 1090.74 86.24L1090.74 115.71Q1090.74 125.88 1085.17 131.45Q1079.60 137.02 NaN 137.02MNaN 128.57Q1075.38 128.57 1078.30 125.50Q1081.23 122.43 1081.23 116.67L1081.23 85.28Q1081.23 79.61 1078.35 76.54Q1075.47 73.47 NaN 73.47Q1064.53 73.47 1061.65 76.54Q1058.77 79.61 1058.77 85.28L1058.77 116.67Q1058.77 122.43 1061.70 125.50Q1064.62 128.57 NaN 128.57M1132.40 136.06L1122.90 136.06L1122.90 74.62L1103.89 74.62L1103.89 65.98L1151.31 65.98L1151.31 74.62L1132.40 74.62L1132.40 136.06M1206.51 136.06L1165.71 136.06L1165.71 65.98L1206.51 65.98L1206.51 74.52L1175.12 74.52L1175.12 95.36L1203.15 95.36L1203.15 103.61L1175.12 103.61L1175.12 127.52L1206.51 127.52L1206.51 136.06M1243.18 137.02Q1232.82 137.02 1226.67 131.60Q1220.53 126.17 1220.53 116.67L1230.03 116.67Q1230.03 122.24 1233.58 125.40Q1237.14 128.57 1243.18 128.57Q1248.94 128.57 1252.35 125.36Q1255.76 122.14 1255.76 116.76Q1255.76 112.73 1253.55 109.71Q1251.34 106.68 1247.31 105.63L1236.94 102.84Q1230.13 100.92 1226.14 95.88Q1222.16 90.84 1222.16 83.93Q1222.16 78.27 1224.70 74Q1227.25 69.72 1231.86 67.37Q1236.46 65.02 1242.51 65.02Q1248.66 65.02 1253.31 67.37Q1257.97 69.72 1260.56 73.95Q1263.15 78.17 1263.15 83.74L1253.74 83.74Q1253.74 79.13 1250.62 76.25Q1247.50 73.37 1242.51 73.37Q1237.52 73.37 1234.50 76.25Q1231.47 79.13 1231.47 83.74Q1231.47 87.48 1233.49 90.03Q1235.50 92.57 1239.15 93.63L1249.81 96.51Q1257.01 98.43 1261.04 103.85Q1265.07 109.28 1265.07 116.76Q1265.07 122.91 1262.38 127.47Q1259.70 132.03 1254.75 134.52Q1249.81 137.02 1243.18 137.02" fill="url(#paint2_linear_0_1)"/>
<g id="Group 1">
<rect id="Rectangle 1" x="26" y="168" width="12" height="184" rx="5" fill="url(#paint3_linear_0_1)" fill-opacity="0.9"/>
</g>
<g id="Group 1_2">
<rect id="Rectangle 2" x="26" y="38" width="12" height="119" rx="5" fill="url(#paint4_linear_0_1)" fill-opacity="0.9"/>
</g>
<ellipse id="Ellipse 1" cx="148.5" cy="573" rx="215.5" ry="214" fill="url(#paint5_linear_0_1)" fill-opacity="0.4"/>
<rect id="Rectangle 3" x="1229" y="48" width="300" height="300" rx="25" fill="#FFFBFB" fill-opacity="0.9"/>
<g id="placeholder-logo"><g transform="translate(1229,48) translate(0.0,60.0) scale(1.2000)"><g fill="#666666">
  <path d="m88.05,27.65c-3.15,4 -3.2,51.2 -0.05,54.35c2.75,2.75 71.7,3.15 74.45,0.45c2.85,-2.9 2.3,-53.85 -0.65,-55.9c-1.95,-1.35 -7.15,-1.55 -36.95,-1.55l-34.7,0l-2.1,2.65zm69.45,3.35c0.65,0 1,8.6 1,23.75l0,23.75l-33,0l-33,0l-0.25,-23c-0.15,-12.6 -0.1,-23.45 0.15,-24.1c0.35,-0.85 8.9,-1.05 32.25,-0.75c17.55,0.2 32.3,0.35 32.85,0.35z"/>
  <path d="m99.15,37.3c-6.85,7.35 4.25,17.35 11.4,10.25c1.35,-1.35 2.45,-3.65 2.45,-5.05c0,-6.45 -9.35,-9.95 -13.85,-5.2z"/>
  <path d="m135,42.5c-0.7,0.85 -5.25,5.15 -10.1,9.6l-8.85,8.1l-3.2,-3.2l-3.15,-3.15l-6.35,6.3c-5.55,5.5 -6.35,6.75 -6.35,10.05l0,3.8l28.5,0l28.5,0l0,-8.6l0,-8.55l-8.15,-7.7c-9.35,-8.85 -9.15,-8.7 -10.85,-6.65zm7.25,15.2c0.95,0.9 1.75,2.9 1.75,4.45c6.35,-5.05 4.75,-7.15 4.9,-11.55c0.95,0 0,0 0,0l-6.65,7.1z"/>
  <path d="m53.65,110.75c0.1,4.8 0.45,8.65 0.75,8.5c0.35,-0.15 1.3,-0.25 2.1,-0.25c1.1,0 1.5,-1.2 1.5,-4.75l0,-4.75l3.25,5c4.9,7.5 6.2,6.75 6.55,-3.75c0.25,-8.15 0.15,-8.75 -1.7,-8.75c-1.65,0 -2.05,0.8 -2.3,4.75l-0.3,4.75l-2.8,-4.75c-4.85,-8.25 -7.25,-6.9 -7.05,4z"/>
  <path d="m91,108.9c0,9.65 0.3,10.1 6.1,10.1c5.8,0 7.15,-2.65 1.65,-3.2l-3.25,-0.3l-0.3,-6.75c-0.25,-5.95 -0.55,-6.75 -2.25,-6.75c-1.75,0 -1.95,0.7 -1.95,6.9z"/>
  <path d="m151,102.45c0,0.25 1,2.15 2.25,4.2c1.2,2.1 2.45,5.8 2.75,8.25c0.65,5.9 4,6.95 4,1.25c0.05,-2.1 1.25,-5.85 2.95,-8.9l2.9,-5.25l-2.5,0c-1.8,0 -2.8,0.85 -3.75,3.1l-1.3,3.05l-1.25,-3.05c-1.1,-2.6 -6.05,-4.8 -6.05,-2.65z"/>
  <path d="m191,107.45c0,9.05 3.4,8.85 4.25,-0.2c0.45,-5 0.35,-5.25 -1.9,-5.25c-2.2,0 -2.35,0.4 -2.35,5.45z"/>
  <path d="m180.8,104.75c-1.3,5.35 0.65,13.6 3.45,14.35c2.3,0.6 2.75,0.4 2.75,-1.2c0,-1.05 -0.45,-1.9 -1,-1.9c-0.55,0 -1,-1.6 -1,-3.5c0,-1.95 0.45,-3.5 1,-3.5c0.55,0 1,-0.7 1,-1.5c0,-0.85 -0.45,-1.5 -1,-1.5c-0.55,0 -1,-0.7 -1,-1.5c0,-2.1 -3.65,-1.9 -4.2,0.25z"/>
  <path d="m71.55,106.55c-2.2,2.25 -2.05,9.7 0.3,11.8c4.5,4.1 10.15,0.75 10.15,-6.1c0,-4.85 -2,-7.25 -6,-7.25c-1.55,0 -3.55,0.7 -4.45,1.55zm6.25,5.8c0.25,3.05 0,3.65 -1.6,3.65c-2.3,0 -3.25,-2.65 -2.05,-5.85c1.25,-3.35 3.3,-2.1 3.65,2.2z"/>
  <path d="m105.75,106.1c-2.5,1.45 -2.45,9.95 0.1,12.25c4.3,3.9 10.15,0.35 10.15,-6.2c0,-6 -5.15,-9.05 -10.25,-6.05zm6.05,6.25c0.25,3.05 0,3.65 -1.6,3.65c-2.3,0 -3.25,-2.65 -2.05,-5.85c1.25,-3.35 3.3,-2.1 3.65,2.2z"/>
  <path d="m119.2,106.2c-3.8,3.8 -0.4,12.55 4.4,11.35c1.9,-0.45 2.45,-0.3 2.15,0.65c-0.25,0.7 -1.55,1.2 -2.85,1.1c-4.05,-0.3 -5.35,0.45 -3.85,2.25c0.85,1.05 2.6,1.45 5.35,1.25l4.1,-0.3l0.3,-8.75l0.3,-8.75l-4.35,0c-2.4,0 -4.9,0.55 -5.55,1.2zm6.6,4.45c0.4,2.85 -2.15,4.85 -3.75,2.95c-0.9,-1.1 -0.9,-2 -0.05,-3.6c1.35,-2.5 3.4,-2.15 3.8,0.65z"/>
  <path d="m133.55,106.55c-2.2,2.25 -2.05,9.7 0.3,11.8c4.5,4.1 10.15,0.75 10.15,-6.1c0,-4.85 -2,-7.25 -6,-7.25c-1.55,0 -3.55,0.7 -4.45,1.55zm6.25,5.8c0.25,3.05 0,3.65 -1.6,3.65c-2.3,0 -3.25,-2.65 -2.05,-5.85c1.25,-3.35 3.3,-2.1 3.65,2.2z"/>
  <path d="m167.65,106.85c-3.9,4.3 -0.75,13.15 4.7,13.15c2.4,0 5.65,-2.75 5.65,-4.85c0,-1.4 -2.65,-1.55 -3.5,-0.15c-0.95,1.55 -4.5,1.15 -4.5,-0.5c0,-1.1 1.1,-1.5 4,-1.5c3.15,0 4,-0.35 4,-1.8c0,-5.3 -6.85,-8.25 -10.35,-4.35z"/>
  <path d="m191,117.5c0,2.15 0.4,2.6 2.25,2.3c1.5,-0.2 2.25,-1 2.25,-2.3c0,-1.3 -0.75,-2.1 -2.25,-2.3c-1.85,-0.3 -2.25,0.15 -2.25,2.3z"/>
 </g></g></g>
</g>
<defs>
<linearGradient id="paint0_linear_0_1" x1="0" y1="198" x2="1584" y2="198" gradientUnits="userSpaceOnUse">
<stop stop-color="#3D052C"/>
<stop offset="1"/>
</linearGradient>
<linearGradient id="paint1_linear_0_1" x1="323" y1="-224" x2="323" y2="352" gradientUnits="userSpaceOnUse">
<stop stop-color="#28F6F2" stop-opacity="0.4"/>
<stop offset="1" stop-color="#17908E" stop-opacity="0.7"/>
</linearGradient>
<linearGradient id="paint2_linear_0_1" x1="148.5" y1="38" x2="148.5" y2="140" gradientUnits="userSpaceOnUse">
<stop stop-color="white"/>
<stop offset="1" stop-color="#999999"/>
</linearGradient>
<linearGradient id="paint3_linear_0_1" x1="38" y1="260" x2="26" y2="260" gradientUnits="userSpaceOnUse">
<stop stop-color="#D9D9D9"/>
<stop offset="1" stop-color="#737373"/>
</linearGradient>
<linearGradient id="paint4_linear_0_1" x1="38" y1="97.5" x2="26" y2="97.5" gradientUnits="userSpaceOnUse">
<stop stop-color="#D9D9D9"/>
<stop offset="1" stop-color="#737373"/>
</linearGradient>
<linearGradient id="paint5_linear_0_1" x1="27.5" y1="434.5" x2="148.5" y2="787" gradientUnits="userSpaceOnUse">
<stop stop-color="#2E21BC"/>
<stop offset="1" stop-color="#150F56"/>
</linearGradient>
<clipPath id="clip0_0_1">
<rect width="1584" height="396" fill="white"/>
</clipPath>
</defs>
</svg>
